HIERARCHY
ROOT Hips
{
	OFFSET 0.00000 0.00000 0.00000
	CHANNELS 6 Xposition Yposition Zposition Zrotation Yrotation Xrotation 
	JOINT LHipJoint
	{
		OFFSET 0 0 0
		CHANNELS 3 Zrotation Yrotation Xrotation
		JOINT LeftHip
		{
			OFFSET 1.65674 -1.80282 0.62477
			CHANNELS 3 Zrotation Yrotation Xrotation
			JOINT LeftKnee
			{
				OFFSET 2.59720 -7.13576 0.00000
				CHANNELS 3 Zrotation Yrotation Xrotation
				JOINT LeftAnkle
				{
					OFFSET 2.49236 -6.84770 0.00000
					CHANNELS 3 Zrotation Yrotation Xrotation
					JOINT LeftToe
					{
						OFFSET 0.19704 -0.54136 2.14581
						CHANNELS 3 Zrotation Yrotation Xrotation
						End Site
						{
							OFFSET 0.00000 -0.00000 1.11249
						}
					}
				}
			}
		}
	}
	JOINT RHipJoint
	{
		OFFSET 0 0 0
		CHANNELS 3 Zrotation Yrotation Xrotation
		JOINT RightHip
		{
			OFFSET -1.61070 -1.80282 0.62476
			CHANNELS 3 Zrotation Yrotation Xrotation
			JOINT RightKnee
			{
				OFFSET -2.59502 -7.12977 0.00000
				CHANNELS 3 Zrotation Yrotation Xrotation
				JOINT RightAnkle
				{
					OFFSET -2.46780 -6.78024 0.00000
					CHANNELS 3 Zrotation Yrotation Xrotation
					JOINT RightToe
					{
						OFFSET -0.23024 -0.63258 2.13368
						CHANNELS 3 Zrotation Yrotation Xrotation
						End Site
						{
							OFFSET -0.00000 -0.00000 1.11569
						}
					}
				}
			}
		}
	}
	JOINT lowerback
	{
		OFFSET 0 0 0
		CHANNELS 3 Zrotation Yrotation Xrotation
		JOINT Chest
		{
			OFFSET 0.01961 2.05450 -0.14112
			CHANNELS 3 Zrotation Yrotation Xrotation
			JOINT Chest2
			{
				OFFSET 0.01021 2.06436 -0.05921
				CHANNELS 3 Zrotation Yrotation Xrotation
				JOINT lowerneck
				{
					OFFSET 0 0 0
					CHANNELS 3 Zrotation Yrotation Xrotation
					JOINT Neck
					{
						OFFSET 0.00713 1.56711 0.14968
						CHANNELS 3 Zrotation Yrotation Xrotation
						JOINT Head
						{
							OFFSET 0.03429 1.56041 -0.10006
							CHANNELS 3 Zrotation Yrotation Xrotation
							End Site
							{
								OFFSET 0.01305 1.62560 -0.05265
							}
						}
					}
				}
				JOINT LeftCollar
				{
					OFFSET 0 0 0
					CHANNELS 3 Zrotation Yrotation Xrotation
					JOINT LeftShoulder
					{
						OFFSET 3.54205 0.90436 -0.17364
CHANNELS 3 Zrotation Xrotation Yrotation
						JOINT LeftElbow
						{
OFFSET 0 -4.865130 -0.000000
CHANNELS 3 Zrotation Xrotation Yrotation
							JOINT LeftWrist
							{
OFFSET 0 -3.355540 0.000000
CHANNELS 3 Zrotation Xrotation Yrotation
								JOINT lhand
								{
									OFFSET 0 0 0
CHANNELS 3 Zrotation Xrotation Yrotation
									JOINT LFingers
									{
OFFSET 0 -0.661170 0.000000
CHANNELS 3 Zrotation Xrotation Yrotation
										End Site
										{
OFFSET 0 -0.533060 0.000000
										}
									}
								}
								JOINT LThumb
								{
OFFSET 0 0.000000 0.000000
CHANNELS 3 Zrotation Xrotation Yrotation
									End Site
									{
OFFSET 0 -0.541200 0.541200
									}
								}
							}
						}
					}
				}
				JOINT RightCollar
				{
					OFFSET 0 0 0
					CHANNELS 3 Zrotation Yrotation Xrotation
					JOINT RightShoulder
					{
						OFFSET -3.49802 0.75994 -0.32616
CHANNELS 3 Zrotation Xrotation Yrotation
						JOINT RightElbow
						{
OFFSET 0 -5.026490 0.000000
CHANNELS 3 Zrotation Xrotation Yrotation
							JOINT RightWrist
							{
OFFSET 0 -3.364310 0.000000
CHANNELS 3 Zrotation Xrotation Yrotation
								JOINT rhand
								{
									OFFSET 0 0 0
CHANNELS 3 Zrotation Xrotation Yrotation
									JOINT RFingers
									{
OFFSET 0 -0.730410 0.000000
CHANNELS 3 Zrotation Xrotation Yrotation
										End Site
										{
OFFSET 0 -0.588870 0.000000
										}
									}
								}
								JOINT RThumb
								{
OFFSET 0 0.000000 0.000000
CHANNELS 3 Zrotation Xrotation Yrotation
									End Site
									{
OFFSET 0 -0.597860 0.597860
									}
								}
							}
						}
					}
				}
			}
		}
	}
}
MOTION
Frames: 9
Frame Time: 0.008333333333333333
9.557300 16.020600 -40.693100 -5.606300 -5.684400 -0.221600 0.000000 0.000000 0.000000 -9.329300 -12.852500 -39.022800 4.237200 12.469500 37.413800 0.259700 5.382900 -13.110100 0.287300 -3.447200 -9.526500 0.000000 0.000000 0.000000 29.373200 -3.037700 14.253700 -0.264100 -3.306300 9.132700 -1.221000 1.373500 -20.482600 -0.009600 -0.632000 1.736800 7.372800 0.611800 12.576200 0.829900 1.774400 3.178500 -3.554400 0.834200 -3.497900 0.355100 1.139900 -12.191300 -4.967200 1.361400 -6.788800 -1.565300 0.627200 -0.054000 -0.000000 0.000000 0.000000 -1.953800 12.359000 16.422400 7.345600 -12.486600 0.804700 26.843100 -3.801000 -17.307700 0.000000 0.000000 0.000000 -7.125000 0.000000 0.000000 -1.074500 49.228200 0.112000 -0.000000 0.000000 0.000000 -11.352600 -18.733800 46.967900 -38.295700 -47.027100 -17.181600 -32.913900 -33.025800 -18.305300 0.000000 0.000000 0.000000 7.125000 0.000000 -0.000000 -3.099700 8.497300 -2.611600
9.564638 16.008799 -40.599785 -5.811919 -5.882631 -0.036657 0.000000 0.000000 0.000000 -8.769215 -13.145633 -39.196290 4.027069 12.191044 36.418726 0.252362 5.752836 -13.338378 0.283978 -3.427218 -9.470571 0.000000 0.000000 0.000000 29.502363 -2.993026 14.791523 -0.229293 -3.073113 8.483068 -1.187284 1.237991 -20.226258 -0.008460 -0.591541 1.625586 7.515796 0.567820 12.542434 0.923909 1.740138 3.088508 -3.531195 0.810995 -3.576637 0.180966 1.251015 -12.091292 -4.885884 1.529237 -6.801047 -1.503024 0.716845 -0.072891 0.000000 0.000000 0.000000 -2.285855 12.649703 17.531365 7.287737 -12.391748 0.792304 26.530878 -3.306116 -17.107188 0.000000 0.000000 0.000000 -7.125000 0.000000 0.000000 -1.343982 48.959065 0.129404 0.000000 0.000000 0.000000 -11.493563 -19.082019 47.263115 -38.500724 -47.155618 -17.331935 -32.819941 -32.787258 -18.215407 0.000000 0.000000 0.000000 7.125000 0.000000 0.000000 -3.052646 8.619720 -2.564496
9.571976 15.996999 -40.506471 -6.017538 -6.080863 0.148286 0.000000 0.000000 0.000000 -8.209129 -13.438765 -39.369779 3.816938 11.912588 35.423652 0.245024 6.122772 -13.566657 0.280656 -3.407236 -9.414642 0.000000 0.000000 0.000000 29.631526 -2.948352 15.329346 -0.194486 -2.839926 7.833437 -1.153568 1.102481 -19.969916 -0.007319 -0.551081 1.514372 7.658793 0.523840 12.508668 1.017917 1.705877 2.998515 -3.507991 0.787791 -3.655374 0.006832 1.362129 -11.991284 -4.804569 1.697074 -6.813294 -1.440748 0.806491 -0.091782 0.000000 0.000000 0.000000 -2.617910 12.940406 18.640331 7.229874 -12.296897 0.779909 26.218656 -2.811231 -16.906676 0.000000 0.000000 0.000000 -7.125000 0.000000 0.000000 -1.613463 48.689931 0.146807 0.000000 0.000000 0.000000 -11.634527 -19.430238 47.558330 -38.705748 -47.284136 -17.482269 -32.725982 -32.548716 -18.125513 0.000000 0.000000 0.000000 7.125000 0.000000 0.000000 -3.005592 8.742139 -2.517393
9.580875 15.985442 -40.409452 -6.228861 -6.280605 0.261619 0.000000 0.000000 0.000000 -7.686384 -13.696848 -39.497543 3.662428 11.693945 34.661739 0.236223 6.554911 -13.860940 0.337343 -3.718107 -10.286580 0.000000 0.000000 0.000000 29.751426 -3.005708 16.108130 -0.152659 -2.492912 6.871233 -1.098061 0.799084 -19.557385 -0.003741 -0.277217 0.761782 8.044017 0.460459 12.861766 0.902797 1.719339 2.701003 -3.862046 0.761612 -4.147007 0.070246 1.451113 -11.782178 -4.581689 1.812946 -6.738964 -1.376913 0.866205 -0.101703 0.000000 0.000000 0.000000 -2.545503 13.603007 19.023878 7.219394 -12.279749 0.777653 26.099135 -2.542342 -16.876537 0.000000 0.000000 0.000000 -7.125000 0.000000 0.000000 -1.724417 48.638261 0.154656 0.000000 0.000000 0.000000 -11.394477 -19.328757 47.792903 -38.934464 -47.425183 -17.650738 -32.943717 -32.586964 -18.364035 0.000000 0.000000 0.000000 7.125000 0.000000 0.000000 -3.109608 8.423244 -2.625210
9.589799 15.973889 -40.312369 -6.440281 -6.480374 0.373725 0.000000 0.000000 0.000000 -7.164279 -13.954331 -39.624525 3.508870 11.476327 33.903819 0.227397 6.988114 -14.156353 0.395057 -4.034642 -11.174407 0.000000 0.000000 0.000000 29.871168 -3.064810 16.891039 -0.110712 -2.143950 5.903678 -1.042181 0.492812 -19.142180 -0.000122 0.000644 -0.001790 8.433390 0.396745 13.221488 0.784097 1.733619 2.399937 -4.222561 0.735383 -4.645709 0.137728 1.539717 -11.571204 -4.356386 1.927929 -6.663153 -1.313050 0.925407 -0.111471 0.000000 0.000000 0.000000 -2.466171 14.271976 19.395004 7.209726 -12.263933 0.775570 25.982913 -2.277323 -16.849317 0.000000 0.000000 0.000000 -7.125000 0.000000 0.000000 -1.832656 48.590314 0.162341 0.000000 0.000000 0.000000 -11.147902 -19.219576 48.026437 -39.163585 -47.566444 -17.819517 -33.166789 -32.629953 -18.608180 0.000000 0.000000 0.000000 7.125000 0.000000 0.000000 -3.216211 8.096792 -2.735680
9.601743 15.970242 -40.207380 -6.348938 -6.665864 0.362934 0.000000 0.000000 0.000000 -7.053173 -14.192025 -39.502788 3.372993 11.272939 33.209240 0.229448 7.299283 -14.509358 0.399923 -4.060105 -11.245841 0.000000 0.000000 0.000000 29.622554 -3.262286 18.002107 -0.070874 -1.638071 4.508161 -0.957602 -0.025332 -18.501975 -0.008193 0.409500 -1.125527 8.399353 0.440788 12.868693 0.746273 1.733669 2.672152 -4.229334 0.764398 -4.162238 0.113264 1.525595 -11.832031 -4.377452 1.910718 -6.744496 -1.315356 0.915134 -0.095510 0.000000 0.000000 0.000000 -2.553337 13.962366 20.265481 7.069925 -12.034040 0.746465 25.997111 -1.360253 -16.980161 0.000000 0.000000 0.000000 -7.125000 0.000000 0.000000 -1.843199 48.734979 0.169883 0.000000 0.000000 0.000000 -11.288227 -19.903263 47.982745 -39.317291 -47.659935 -17.933101 -33.420861 -32.748883 -18.750940 0.000000 0.000000 0.000000 7.125000 0.000000 0.000000 -3.356065 7.877617 -2.870107
9.613791 15.966870 -40.102116 -6.247046 -6.850857 0.347861 0.000000 0.000000 0.000000 -6.956388 -14.429030 -39.372386 3.237731 11.070047 32.516868 0.231877 7.606199 -14.864370 0.402947 -4.075426 -11.288829 0.000000 0.000000 0.000000 29.361105 -3.464583 19.124608 -0.031108 -1.126726 3.097734 -0.872022 -0.550858 -17.853930 -0.016672 0.822920 -2.261812 8.350564 0.488586 12.491072 0.711268 1.733223 2.964343 -4.223780 0.795337 -3.644546 0.085597 1.507894 -12.109297 -4.407103 1.888902 -6.831315 -1.319967 0.902441 -0.078651 0.000000 0.000000 0.000000 -2.646305 13.618659 21.153358 6.925590 -11.796687 0.716418 26.015853 -0.420464 -17.116514 0.000000 0.000000 0.000000 -7.125000 0.000000 0.000000 -1.850339 48.886355 0.177419 0.000000 0.000000 0.000000 -11.442032 -20.614575 47.929394 -39.468370 -47.751762 -18.044761 -33.676014 -32.870460 -18.890168 0.000000 0.000000 0.000000 7.125000 0.000000 0.000000 -3.497078 7.662181 -3.005369
9.624428 15.965382 -39.993839 -6.152686 -7.126805 0.264148 0.000000 0.000000 0.000000 -6.837570 -14.558414 -39.155406 3.145406 10.925485 32.030418 0.257517 7.682431 -15.300451 0.337284 -3.711201 -10.267750 0.000000 0.000000 0.000000 29.103186 -3.639198 20.393900 -0.015400 -0.582613 1.601670 -0.778392 -1.081092 -17.074771 -0.037909 1.198725 -3.296502 8.253661 0.514163 12.737052 0.683607 1.781644 2.878305 -4.214367 0.807963 -3.866880 0.060520 1.519994 -12.272068 -4.428655 1.920614 -6.526253 -1.319965 0.911639 0.045357 0.000000 0.000000 0.000000 -2.786539 13.976374 21.679907 6.855450 -11.681033 0.702189 25.911297 -0.187605 -17.065917 0.000000 0.000000 0.000000 -7.125000 0.000000 0.000000 -1.942691 48.814814 0.182649 0.000000 0.000000 0.000000 -11.454414 -20.699979 48.025376 -39.610362 -47.837140 -18.149971 -33.747701 -32.756974 -18.783411 0.000000 0.000000 0.000000 7.125000 0.000000 0.000000 -3.559093 7.769232 -3.051181
9.634989 15.963993 -39.885402 -6.058727 -7.407592 0.176783 0.000000 0.000000 0.000000 -6.717580 -14.682073 -38.933822 3.055363 10.784026 31.554920 0.284390 7.746393 -15.740844 0.267968 -3.326786 -9.190071 0.000000 0.000000 0.000000 28.845456 -3.812341 21.671000 -0.000972 -0.036758 0.101052 -0.684334 -1.611577 -16.288638 -0.059824 1.572528 -4.325788 8.154198 0.538557 13.016202 0.656336 1.832664 2.772149 -4.204748 0.819615 -4.128577 0.035579 1.533678 -12.428749 -4.449778 1.955173 -6.200347 -1.319717 0.922002 0.175065 0.000000 0.000000 0.000000 -2.929287 14.371399 22.187236 6.789257 -11.571852 0.688802 25.800182 0.007651 -17.005377 0.000000 0.000000 0.000000 -7.125000 0.000000 0.000000 -2.039576 48.731416 0.187756 0.000000 0.000000 0.000000 -11.459273 -20.752091 48.129302 -39.751871 -47.922174 -18.254838 -33.809630 -32.630984 -18.663570 0.000000 0.000000 0.000000 7.125000 0.000000 0.000000 -3.616907 7.893436 -3.092235
